<mxfile host="app.diagrams.net" agent="Mozilla/5.0 (Windows NT 10.0; Win64; x64) AppleWebKit/537.36 (KHTML, like Gecko) Chrome/128.0.0.0 YaBrowser/24.10.0.0 Safari/537.36" version="24.8.9">
  <diagram name="Страница — 1" id="aVIj9qUEST13j_-yVXe9">
    <mxGraphModel dx="1155" dy="639" grid="0" gridSize="10" guides="1" tooltips="1" connect="1" arrows="1" fold="1" page="1" pageScale="1" pageWidth="827" pageHeight="1169" math="0" shadow="0">
      <root>
        <mxCell id="0" />
        <mxCell id="1" parent="0" />
        <mxCell id="K872ePAgzn2kTXlysSnF-8" value="" style="edgeStyle=orthogonalEdgeStyle;rounded=0;orthogonalLoop=1;jettySize=auto;html=1;strokeWidth=2;fontStyle=1" parent="1" source="K872ePAgzn2kTXlysSnF-1" edge="1">
          <mxGeometry relative="1" as="geometry">
            <mxPoint x="130" y="116" as="targetPoint" />
          </mxGeometry>
        </mxCell>
        <mxCell id="K872ePAgzn2kTXlysSnF-1" value="начало" style="rounded=1;whiteSpace=wrap;html=1;strokeWidth=2;fontStyle=1" parent="1" vertex="1">
          <mxGeometry x="70" y="30" width="120" height="60" as="geometry" />
        </mxCell>
        <mxCell id="cSjah0AEVabmtViPewjv-22" value="" style="edgeStyle=orthogonalEdgeStyle;rounded=0;orthogonalLoop=1;jettySize=auto;html=1;fontStyle=1;strokeWidth=2;entryX=0.5;entryY=0;entryDx=0;entryDy=0;" parent="1" source="cSjah0AEVabmtViPewjv-30" target="gwhqHNUWIMUP1E9urbo3-1" edge="1">
          <mxGeometry relative="1" as="geometry">
            <mxPoint x="189" y="159" as="sourcePoint" />
            <mxPoint x="132" y="320" as="targetPoint" />
            <Array as="points">
              <mxPoint x="217" y="159" />
              <mxPoint x="217" y="302" />
              <mxPoint x="130" y="302" />
            </Array>
          </mxGeometry>
        </mxCell>
        <mxCell id="cSjah0AEVabmtViPewjv-28" value="да" style="text;html=1;align=center;verticalAlign=middle;whiteSpace=wrap;rounded=0;strokeWidth=2;fontStyle=1" parent="1" vertex="1">
          <mxGeometry x="123" y="194" width="60" height="30" as="geometry" />
        </mxCell>
        <mxCell id="cSjah0AEVabmtViPewjv-29" value="нет" style="text;html=1;align=center;verticalAlign=middle;whiteSpace=wrap;rounded=0;strokeWidth=2;fontStyle=1" parent="1" vertex="1">
          <mxGeometry x="171" y="133" width="60" height="30" as="geometry" />
        </mxCell>
        <mxCell id="cSjah0AEVabmtViPewjv-33" value="" style="edgeStyle=orthogonalEdgeStyle;rounded=0;orthogonalLoop=1;jettySize=auto;html=1;strokeWidth=2;fontStyle=1" parent="1" source="cSjah0AEVabmtViPewjv-30" target="cSjah0AEVabmtViPewjv-32" edge="1">
          <mxGeometry relative="1" as="geometry" />
        </mxCell>
        <mxCell id="cSjah0AEVabmtViPewjv-30" value="&lt;font style=&quot;font-size: 10px;&quot;&gt;*head == NULL&amp;nbsp;&lt;/font&gt;&lt;div&gt;&lt;font style=&quot;font-size: 10px;&quot;&gt;|| (*head)-&amp;gt;next == NULL&lt;/font&gt;&lt;/div&gt;" style="rhombus;whiteSpace=wrap;html=1;strokeWidth=2;fontStyle=1" parent="1" vertex="1">
          <mxGeometry x="71.5" y="114" width="117" height="90" as="geometry" />
        </mxCell>
        <mxCell id="cSjah0AEVabmtViPewjv-32" value="return" style="rounded=0;whiteSpace=wrap;html=1;strokeWidth=2;fontStyle=1" parent="1" vertex="1">
          <mxGeometry x="70" y="224" width="120" height="60" as="geometry" />
        </mxCell>
        <mxCell id="gwhqHNUWIMUP1E9urbo3-3" value="" style="edgeStyle=orthogonalEdgeStyle;rounded=0;orthogonalLoop=1;jettySize=auto;html=1;strokeWidth=2;fontStyle=1" edge="1" parent="1" source="gwhqHNUWIMUP1E9urbo3-1" target="gwhqHNUWIMUP1E9urbo3-2">
          <mxGeometry relative="1" as="geometry" />
        </mxCell>
        <mxCell id="gwhqHNUWIMUP1E9urbo3-1" value="CD* first = *head,&lt;div&gt;CD* last = *head,&lt;br&gt;&lt;/div&gt;&lt;div&gt;CD* prevLast = NULL&lt;br&gt;&lt;/div&gt;" style="rounded=0;whiteSpace=wrap;html=1;strokeWidth=2;fontStyle=1" vertex="1" parent="1">
          <mxGeometry x="70" y="321" width="120" height="60" as="geometry" />
        </mxCell>
        <mxCell id="gwhqHNUWIMUP1E9urbo3-2" value="1" style="ellipse;whiteSpace=wrap;html=1;aspect=fixed;strokeWidth=2;fontStyle=1" vertex="1" parent="1">
          <mxGeometry x="97" y="402" width="66" height="66" as="geometry" />
        </mxCell>
        <mxCell id="gwhqHNUWIMUP1E9urbo3-6" value="" style="edgeStyle=orthogonalEdgeStyle;rounded=0;orthogonalLoop=1;jettySize=auto;html=1;strokeWidth=2;fontStyle=1" edge="1" parent="1" source="gwhqHNUWIMUP1E9urbo3-4" target="gwhqHNUWIMUP1E9urbo3-5">
          <mxGeometry relative="1" as="geometry" />
        </mxCell>
        <mxCell id="gwhqHNUWIMUP1E9urbo3-4" value="1" style="ellipse;whiteSpace=wrap;html=1;aspect=fixed;strokeWidth=2;fontStyle=1" vertex="1" parent="1">
          <mxGeometry x="288.97" y="30" width="66" height="66" as="geometry" />
        </mxCell>
        <mxCell id="gwhqHNUWIMUP1E9urbo3-8" value="" style="edgeStyle=orthogonalEdgeStyle;rounded=0;orthogonalLoop=1;jettySize=auto;html=1;strokeWidth=2;fontStyle=1" edge="1" parent="1" source="gwhqHNUWIMUP1E9urbo3-5" target="gwhqHNUWIMUP1E9urbo3-7">
          <mxGeometry relative="1" as="geometry" />
        </mxCell>
        <mxCell id="gwhqHNUWIMUP1E9urbo3-5" value="&lt;span style=&quot;font-size: 10px;&quot;&gt;last-&amp;gt;next != NULL&lt;/span&gt;" style="rhombus;whiteSpace=wrap;html=1;strokeWidth=2;fontStyle=1" vertex="1" parent="1">
          <mxGeometry x="263.47" y="117" width="117" height="90" as="geometry" />
        </mxCell>
        <mxCell id="gwhqHNUWIMUP1E9urbo3-7" value="prevLast = last,&lt;div&gt;last = last-&amp;gt;next&lt;br&gt;&lt;/div&gt;" style="whiteSpace=wrap;html=1;strokeWidth=2;fontStyle=1;" vertex="1" parent="1">
          <mxGeometry x="261.97" y="227" width="120" height="60" as="geometry" />
        </mxCell>
        <mxCell id="gwhqHNUWIMUP1E9urbo3-9" value="" style="edgeStyle=orthogonalEdgeStyle;rounded=0;orthogonalLoop=1;jettySize=auto;html=1;exitX=0.5;exitY=1;exitDx=0;exitDy=0;entryX=0;entryY=0.5;entryDx=0;entryDy=0;strokeWidth=2;fontStyle=1" edge="1" parent="1" source="gwhqHNUWIMUP1E9urbo3-7" target="gwhqHNUWIMUP1E9urbo3-5">
          <mxGeometry relative="1" as="geometry">
            <mxPoint x="331.97" y="217" as="sourcePoint" />
            <mxPoint x="331.97" y="237" as="targetPoint" />
            <Array as="points">
              <mxPoint x="321.97" y="299" />
              <mxPoint x="243.97" y="299" />
              <mxPoint x="243.97" y="162" />
            </Array>
          </mxGeometry>
        </mxCell>
        <mxCell id="gwhqHNUWIMUP1E9urbo3-10" value="" style="edgeStyle=orthogonalEdgeStyle;rounded=0;orthogonalLoop=1;jettySize=auto;html=1;exitX=1;exitY=0.5;exitDx=0;exitDy=0;strokeWidth=2;fontStyle=1" edge="1" parent="1" source="gwhqHNUWIMUP1E9urbo3-5">
          <mxGeometry relative="1" as="geometry">
            <mxPoint x="332" y="217" as="sourcePoint" />
            <mxPoint x="322" y="331" as="targetPoint" />
            <Array as="points">
              <mxPoint x="401" y="162" />
              <mxPoint x="401" y="309" />
              <mxPoint x="322" y="309" />
            </Array>
          </mxGeometry>
        </mxCell>
        <mxCell id="gwhqHNUWIMUP1E9urbo3-11" value="2" style="ellipse;whiteSpace=wrap;html=1;aspect=fixed;strokeWidth=2;fontStyle=1" vertex="1" parent="1">
          <mxGeometry x="288.97" y="330" width="66" height="66" as="geometry" />
        </mxCell>
        <mxCell id="gwhqHNUWIMUP1E9urbo3-14" value="" style="edgeStyle=orthogonalEdgeStyle;rounded=0;orthogonalLoop=1;jettySize=auto;html=1;strokeWidth=2;fontStyle=1" edge="1" parent="1" source="gwhqHNUWIMUP1E9urbo3-12" target="gwhqHNUWIMUP1E9urbo3-13">
          <mxGeometry relative="1" as="geometry" />
        </mxCell>
        <mxCell id="gwhqHNUWIMUP1E9urbo3-12" value="2" style="ellipse;whiteSpace=wrap;html=1;aspect=fixed;strokeWidth=2;fontStyle=1" vertex="1" parent="1">
          <mxGeometry x="454" y="30" width="66" height="66" as="geometry" />
        </mxCell>
        <mxCell id="gwhqHNUWIMUP1E9urbo3-17" value="" style="edgeStyle=orthogonalEdgeStyle;rounded=0;orthogonalLoop=1;jettySize=auto;html=1;strokeWidth=2;fontStyle=1" edge="1" parent="1" source="gwhqHNUWIMUP1E9urbo3-13" target="gwhqHNUWIMUP1E9urbo3-15">
          <mxGeometry relative="1" as="geometry" />
        </mxCell>
        <mxCell id="gwhqHNUWIMUP1E9urbo3-13" value="&lt;span style=&quot;font-size: 10px;&quot;&gt;first != last&lt;/span&gt;" style="rhombus;whiteSpace=wrap;html=1;strokeWidth=2;fontStyle=1" vertex="1" parent="1">
          <mxGeometry x="428.5" y="117" width="117" height="90" as="geometry" />
        </mxCell>
        <mxCell id="gwhqHNUWIMUP1E9urbo3-15" value="&lt;div&gt;&lt;font style=&quot;font-size: 10px;&quot;&gt;prevLast-&amp;gt;next = first,&lt;br&gt;&lt;/font&gt;&lt;/div&gt;&lt;div&gt;&lt;font style=&quot;font-size: 10px;&quot;&gt;last-&amp;gt;next = first-&amp;gt;next,&lt;br&gt;&lt;/font&gt;&lt;/div&gt;&lt;div&gt;&lt;font style=&quot;font-size: 10px;&quot;&gt;&lt;font style=&quot;&quot;&gt;first-&amp;gt;next = NULL,&lt;/font&gt;&lt;br&gt;&lt;/font&gt;&lt;/div&gt;&lt;div&gt;&lt;font style=&quot;&quot;&gt;&lt;font style=&quot;font-size: 10px;&quot;&gt;*head = last&lt;/font&gt;&lt;br&gt;&lt;/font&gt;&lt;/div&gt;" style="whiteSpace=wrap;html=1;strokeWidth=2;fontStyle=1;" vertex="1" parent="1">
          <mxGeometry x="427" y="227" width="120" height="60" as="geometry" />
        </mxCell>
        <mxCell id="gwhqHNUWIMUP1E9urbo3-18" value="конец" style="rounded=1;whiteSpace=wrap;html=1;strokeWidth=2;fontStyle=1" vertex="1" parent="1">
          <mxGeometry x="427" y="317" width="120" height="60" as="geometry" />
        </mxCell>
        <mxCell id="gwhqHNUWIMUP1E9urbo3-21" value="" style="edgeStyle=orthogonalEdgeStyle;rounded=0;orthogonalLoop=1;jettySize=auto;html=1;entryX=0.5;entryY=0;entryDx=0;entryDy=0;strokeWidth=2;fontStyle=1" edge="1" parent="1" source="gwhqHNUWIMUP1E9urbo3-13" target="gwhqHNUWIMUP1E9urbo3-18">
          <mxGeometry relative="1" as="geometry">
            <mxPoint x="548" y="163" as="sourcePoint" />
            <mxPoint x="490" y="332" as="targetPoint" />
            <Array as="points">
              <mxPoint x="569" y="162" />
              <mxPoint x="569" y="301" />
              <mxPoint x="487" y="301" />
            </Array>
          </mxGeometry>
        </mxCell>
        <mxCell id="gwhqHNUWIMUP1E9urbo3-22" value="да" style="text;html=1;align=center;verticalAlign=middle;whiteSpace=wrap;rounded=0;strokeWidth=2;fontStyle=1" vertex="1" parent="1">
          <mxGeometry x="485.5" y="197" width="60" height="30" as="geometry" />
        </mxCell>
        <mxCell id="gwhqHNUWIMUP1E9urbo3-23" value="нет" style="text;html=1;align=center;verticalAlign=middle;whiteSpace=wrap;rounded=0;strokeWidth=2;fontStyle=1" vertex="1" parent="1">
          <mxGeometry x="528" y="133" width="60" height="30" as="geometry" />
        </mxCell>
        <mxCell id="gwhqHNUWIMUP1E9urbo3-25" value="" style="edgeStyle=orthogonalEdgeStyle;rounded=0;orthogonalLoop=1;jettySize=auto;html=1;" edge="1" parent="1" source="gwhqHNUWIMUP1E9urbo3-24" target="gwhqHNUWIMUP1E9urbo3-18">
          <mxGeometry relative="1" as="geometry" />
        </mxCell>
        <mxCell id="gwhqHNUWIMUP1E9urbo3-24" value="3" style="ellipse;whiteSpace=wrap;html=1;aspect=fixed;strokeWidth=2;fontStyle=1" vertex="1" parent="1">
          <mxGeometry x="588" y="314" width="66" height="66" as="geometry" />
        </mxCell>
        <mxCell id="gwhqHNUWIMUP1E9urbo3-26" value="3" style="ellipse;whiteSpace=wrap;html=1;aspect=fixed;strokeWidth=2;fontStyle=1" vertex="1" parent="1">
          <mxGeometry x="152" y="249" width="31" height="31" as="geometry" />
        </mxCell>
        <mxCell id="gwhqHNUWIMUP1E9urbo3-27" value="да" style="text;html=1;align=center;verticalAlign=middle;whiteSpace=wrap;rounded=0;strokeWidth=2;fontStyle=1" vertex="1" parent="1">
          <mxGeometry x="318" y="197" width="60" height="30" as="geometry" />
        </mxCell>
        <mxCell id="gwhqHNUWIMUP1E9urbo3-28" value="нет" style="text;html=1;align=center;verticalAlign=middle;whiteSpace=wrap;rounded=0;strokeWidth=2;fontStyle=1" vertex="1" parent="1">
          <mxGeometry x="361" y="131" width="60" height="30" as="geometry" />
        </mxCell>
      </root>
    </mxGraphModel>
  </diagram>
</mxfile>
